<?xml version="1.0" encoding="UTF-8" standalone="no"?>
<!-- Created with Inkscape (http://www.inkscape.org/) -->

<svg
   xmlns:dc="http://purl.org/dc/elements/1.1/"
   xmlns:cc="http://creativecommons.org/ns#"
   xmlns:rdf="http://www.w3.org/1999/02/22-rdf-syntax-ns#"
   xmlns:svg="http://www.w3.org/2000/svg"
   xmlns="http://www.w3.org/2000/svg"
   xmlns:sodipodi="http://sodipodi.sourceforge.net/DTD/sodipodi-0.dtd"
   xmlns:inkscape="http://www.inkscape.org/namespaces/inkscape"
   width="56mm"
   height="56mm"
   viewBox="0 0 56.000001 56"
   version="1.1"
   id="svg8"
   inkscape:version="0.92.3 (2405546, 2018-03-11)"
   sodipodi:docname="favicon.svg">
  <defs
     id="defs2" />
  <sodipodi:namedview
     id="base"
     pagecolor="#ffffff"
     bordercolor="#666666"
     borderopacity="1.0"
     inkscape:pageopacity="0.0"
     inkscape:pageshadow="2"
     inkscape:zoom="2"
     inkscape:cx="160.75587"
     inkscape:cy="155.52874"
     inkscape:document-units="mm"
     inkscape:current-layer="text817"
     showgrid="false"
     fit-margin-top="0"
     fit-margin-left="0"
     fit-margin-right="0"
     fit-margin-bottom="0"
     inkscape:window-width="1920"
     inkscape:window-height="1029"
     inkscape:window-x="0"
     inkscape:window-y="25"
     inkscape:window-maximized="1" />
  <metadata
     id="metadata5">
    <rdf:RDF>
      <cc:Work
         rdf:about="">
        <dc:format>image/svg+xml</dc:format>
        <dc:type
           rdf:resource="http://purl.org/dc/dcmitype/StillImage" />
        <dc:title></dc:title>
      </cc:Work>
    </rdf:RDF>
  </metadata>
  <g
     inkscape:label="Calque 1"
     inkscape:groupmode="layer"
     id="layer1"
     transform="translate(-3.5869503,7.7809)">
    <g
       aria-label="X"
       style="font-style:normal;font-variant:normal;font-weight:normal;font-stretch:normal;font-size:10.58333302px;line-height:1.25;font-family:'Domestic Manners';-inkscape-font-specification:'Domestic Manners, Normal';font-variant-ligatures:normal;font-variant-caps:normal;font-variant-numeric:normal;font-feature-settings:normal;text-align:start;letter-spacing:0px;word-spacing:0px;writing-mode:lr-tb;text-anchor:start;fill:#000000;fill-opacity:1;stroke:none;stroke-width:0.26458332"
       id="text817">
      <rect
         style="fill:#454648;fill-opacity:1;stroke:none;stroke-width:0.86168563;stroke-linecap:round;stroke-miterlimit:4;stroke-dasharray:none;stroke-opacity:1"
         id="rect918"
         width="56"
         height="56"
         x="3.5869503"
         y="-7.7809" />
      <path
         d="m 22.674493,7.1158476 c 0,3.0745314 2.806096,5.6731614 8.271923,7.2104334 l 1.469954,0.181214 0.835916,0.0756 c 3.117231,0 6.789583,-1.366459 11.017068,-4.099371 4.05667,-3.2880471 6.447966,-6.1917628 7.1739,-8.7111601 h 0.256205 v 0.7686099 c -0.939415,3.2026327 -3.330748,6.3625656 -7.173902,9.4797972 -4.868006,3.586951 -9.223592,5.380425 -13.066759,5.380425 -5.337725,0 -9.449142,-3.025224 -11.273271,-7.1739 -0.61764,-1.4047576 -0.80654,-3.2257741 -0.256204,-5.3804132 l 3.7e-5,-6.131e-4 c 0.550337,-2.1546392 4.01397,-4.61178871 6.405265,-4.61178871 l 0.256206,0.25620256 V 0.23468299 c 1.537271,0.21356543 2.305906,0.46976799 2.305906,0.76860991 -2.903728,0 -5.111931,1.7445548 -5.965968,4.3066518 M 46.831489,3.821657 47.856304,4.8464717 V 5.8712862 C 47.600101,6.5544967 47.002169,6.8961008 46.062828,6.8961008 L 45.038015,5.8712862 V 4.8464717 C 45.336856,4.1632633 45.934665,3.821657 46.831489,3.821657 Z m -5.380426,2.8183163 h 0.768612 c 0.854012,0.3416042 1.281055,0.9394131 1.281055,1.7934745 V 8.9458552 C 42.988323,9.7998666 42.390513,10.226897 41.707256,10.226897 41.024045,9.9706948 40.511637,9.5436891 40.169996,8.9458552 V 8.4334478 c 0,-0.8540114 0.427006,-1.4518578 1.281067,-1.7934745 z m -7.1739,3.330734 v 0.5124077 c 0,1.281054 0.854012,2.049679 2.562099,2.305894 1.53726,-0.213565 2.305894,-0.982175 2.305894,-2.305894 V 9.9707073 C 38.931591,8.4334478 38.162981,7.6648109 36.839262,7.6648109 35.1312,7.8356181 34.277163,8.604226 34.277163,9.9707073 Z M 15.061354,7.9210155 h 0.256205 c 0,4.9961195 2.903728,8.5830705 8.711172,10.7608515 l 2.04968,0.256205 h 2.818326 v 0.256203 l -4.611803,1.024814 c -5.722042,0 -8.881973,-3.330746 -9.479795,-9.992227 V 9.7144525 Z m 16.397482,0 c 1.195618,0.3843665 1.793475,1.1529785 1.793475,2.3058945 0,1.366458 -0.683211,2.049692 -2.049679,2.049692 h -0.768611 c -1.024814,-0.683211 -1.537259,-1.366444 -1.537259,-2.049692 0,-1.3664564 0.854012,-2.1350788 2.562099,-2.3058945 z m 5.380426,0.2562047 c 1.067577,0 1.665373,0.6832084 1.793474,2.0496768 0,0.982178 -0.597809,1.665374 -1.793474,2.049692 -1.366456,-0.256202 -2.04968,-0.939413 -2.04968,-2.049692 0.128033,-1.3664559 0.811375,-2.0496768 2.04968,-2.0496768 z m 3.330746,7.6863208 c 2.732913,2.092391 4.099371,4.569101 4.099371,7.430117 v 1.024814 c 0,2.775613 -1.281056,5.081509 -3.843168,6.917685 -2.732913,-2.006979 -4.099369,-4.142072 -4.099369,-6.405265 h -0.256204 v 0.76861 c 0,5.67933 2.647513,9.522496 7.942524,11.529489 l 2.305907,0.256202 h 1.281044 c 4.611801,-1.024814 6.917698,-3.330734 6.917698,-6.917685 v -0.256203 c -0.597809,-3.074531 -1.7081,-4.611791 -3.330748,-4.611791 l 0.768611,2.04968 c 0,0.982175 -0.768611,1.750775 -2.305894,2.305894 -1.409158,0 -2.263194,-0.854011 -2.562112,-2.562098 0.384367,-1.878889 1.323769,-2.818328 2.818327,-2.818328 h 1.281045 c 2.818326,0 4.611801,2.135094 5.380425,6.405278 0,3.159933 -1.793477,5.807445 -5.380425,7.942538 -0.640449,0.512407 -2.177758,0.939413 -4.611792,1.281041 -5.508526,0 -9.437094,-3.245332 -11.785691,-9.735998 l -0.256202,-2.049692 v -1.281055 c 0,-4.483688 1.878876,-8.241442 5.636641,-11.273271 z m -1.537272,0.512407 -1.793474,1.793474 c 0,-0.512407 -0.256205,-0.76861 -0.768612,-0.76861 0,-0.384369 0.854014,-0.725972 2.562099,-1.024814 z m 1.537272,1.281054 c -1.366456,1.409159 -2.049692,3.117231 -2.049692,5.124211 0.341607,3.416148 1.195619,5.124221 2.562112,5.124221 1.195618,-1.451858 1.793475,-3.159931 1.793475,-5.124221 0,-2.220495 -0.76861,-3.928556 -2.305895,-5.124211 z M 25.053558,22.7812 c 2.305895,-2.220494 5.892846,-3.843153 10.760852,-4.867993 h 0.256203 c -2.220494,3.117231 -3.330747,6.106361 -3.330747,8.967375 l 0.256205,0.256205 v 2.049692 c 0,2.305894 0.76861,4.440974 2.305894,6.405265 -1.836177,1.878876 -3.971267,2.818314 -6.405265,2.818314 h -0.768611 c -2.006979,0 -3.202632,-0.597809 -3.58695,-1.793475 l -0.256205,-1.793501 v -0.768611 c 0,-2.690212 1.366459,-5.508539 4.099371,-8.454957 0.939413,-1.195617 1.622673,-1.793474 2.049691,-1.793474 v -0.256204 h -0.512407 c -7.1739,2.263194 -10.760851,7.045799 -10.760851,14.347802 v 1.024814 l 0.256203,0.256203 v 0.256205 h -0.512408 l -0.512407,-4.099371 c -0.587521,-4.700798 2.718115,-9.92884 6.661432,-12.554289 z m 14.860258,-4.099383 h 0.768612 c 0.854012,1.921578 1.281055,3.45885 1.281055,4.611803 0,1.708061 -0.597809,2.989118 -1.793475,3.843154 -0.725972,-0.982175 -1.238379,-2.348596 -1.537272,-4.099371 0,-0.939413 0.427006,-2.391296 1.281057,-4.355586 z m -3.586949,0.256204 v 0.256203 l -0.512407,0.512408 v -0.256203 z m -18.959593,2.04968 h 1.537259 c 1.494573,0 2.94643,0.341604 4.355587,1.024815 -2.818315,4.270172 -6.576067,6.405265 -11.273272,6.405265 H 11.474441 L 6.8626399,27.905373 V 27.649169 L 16.598652,24.318435 V 24.06223 H 16.342446 L 6.6064352,26.624342 V 26.368139 C 9.7663681,22.781188 13.353319,20.987713 17.367286,20.987713 Z m 8.967377,12.554338 v 1.53726 c 0,1.024814 0.512407,1.537259 1.537259,1.537259 h 1.281055 c 0.811374,0 2.00703,-0.427008 3.586951,-1.281044 -1.067577,-1.323756 -1.836177,-3.800464 -2.305895,-7.430117 l 0.256203,-1.793475 c -1.537272,0.768612 -2.903728,2.818339 -4.099381,6.14906 z m 3.586926,-5.892782 c 0,2.305894 0.597808,4.782604 1.793474,7.430115 -1.024814,0.68321 -2.049692,1.024814 -3.074529,1.024814 h -0.256205 c -1.024814,0 -1.537259,-0.512407 -1.537259,-1.537257 0,-2.562111 1.024815,-4.868006 3.074531,-6.917697 z"
         style="font-style:normal;font-variant:normal;font-weight:normal;font-stretch:normal;font-size:10.58333302px;font-family:'Vintage Panels_010';-inkscape-font-specification:'Vintage Panels_010, Normal';font-variant-ligatures:normal;font-variant-caps:normal;font-variant-numeric:normal;font-feature-settings:normal;text-align:start;writing-mode:lr-tb;text-anchor:start;fill:#91c149;fill-opacity:1;stroke-width:3.27949762"
         id="path819"
         inkscape:connector-curvature="0"
         sodipodi:nodetypes="cccccccccsszcccccccccccccsscccscsccsccscccccccccccsscsccscccsccscccscccscccccsscccccsccccccccccsccccccscssccsccccscccccsccccccccscccssscccccccccccscsccccccccsscccc" />
    </g>
  </g>
</svg>
