<?xml version="1.0" encoding="UTF-8"?>
<!-- Created with Inkscape (http://www.inkscape.org/) -->
<svg width="49.961mm" height="39.969mm" version="1.1" viewBox="0 0 49.961 39.969" xmlns="http://www.w3.org/2000/svg" xmlns:cc="http://creativecommons.org/ns#" xmlns:dc="http://purl.org/dc/elements/1.1/" xmlns:rdf="http://www.w3.org/1999/02/22-rdf-syntax-ns#">
 <metadata>
  <rdf:RDF>
   <cc:Work rdf:about="">
    <dc:format>image/svg+xml</dc:format>
    <dc:type rdf:resource="http://purl.org/dc/dcmitype/StillImage"/>
    <dc:title/>
   </cc:Work>
  </rdf:RDF>
 </metadata>
 <g transform="translate(-6.6064 -.23468)">
  <g style="font-feature-settings:normal;font-variant-caps:normal;font-variant-ligatures:normal;font-variant-numeric:normal" aria-label="X">
   <path d="m22.674 7.1158c0 3.0745 2.8061 5.6732 8.2719 7.2104l1.47 0.18121 0.83592 0.0756c3.1172 0 6.7896-1.3665 11.017-4.0994 4.0567-3.288 6.448-6.1918 7.1739-8.7112h0.2562v0.76861c-0.93942 3.2026-3.3307 6.3626-7.1739 9.4798-4.868 3.587-9.2236 5.3804-13.067 5.3804-5.3377 0-9.4491-3.0252-11.273-7.1739-0.61764-1.4048-0.80654-3.2258-0.2562-5.3804l3.7e-5 -6.131e-4c0.55034-2.1546 4.014-4.6118 6.4053-4.6118l0.25621 0.2562v-0.2562c1.5373 0.21357 2.3059 0.46977 2.3059 0.76861-2.9037 0-5.1119 1.7446-5.966 4.3067m23.901-1.4883 1.0248 1.0248v1.0248c-0.2562 0.68321-0.85414 1.0248-1.7935 1.0248l-1.0248-1.0248v-1.0248c0.29884-0.68321 0.89665-1.0248 1.7935-1.0248zm-5.3804 2.8183h0.76861c0.85401 0.3416 1.2811 0.93941 1.2811 1.7935v0.51241c-0.51241 0.85401-1.1102 1.281-1.7935 1.281-0.68321-0.2562-1.1956-0.68321-1.5373-1.281v-0.51241c0-0.85401 0.42701-1.4519 1.2811-1.7935zm-7.1739 3.3307v0.51241c0 1.2811 0.85401 2.0497 2.5621 2.3059 1.5373-0.21356 2.3059-0.98218 2.3059-2.3059v-0.51241c-0.21356-1.5373-0.98218-2.3059-2.3059-2.3059-1.7081 0.17081-2.5621 0.93942-2.5621 2.3059zm-19.216-2.0497h0.2562c0 4.9961 2.9037 8.5831 8.7112 10.761l2.0497 0.2562h2.8183v0.2562l-4.6118 1.0248c-5.722 0-8.882-3.3307-9.4798-9.9922v-0.51241zm16.397 0c1.1956 0.38437 1.7935 1.153 1.7935 2.3059 0 1.3665-0.68321 2.0497-2.0497 2.0497h-0.76861c-1.0248-0.68321-1.5373-1.3664-1.5373-2.0497 0-1.3665 0.85401-2.1351 2.5621-2.3059zm5.3804 0.2562c1.0676 0 1.6654 0.68321 1.7935 2.0497 0 0.98218-0.59781 1.6654-1.7935 2.0497-1.3665-0.2562-2.0497-0.93941-2.0497-2.0497 0.12803-1.3665 0.81138-2.0497 2.0497-2.0497zm3.3307 7.6863c2.7329 2.0924 4.0994 4.5691 4.0994 7.4301v1.0248c0 2.7756-1.2811 5.0815-3.8432 6.9177-2.7329-2.007-4.0994-4.1421-4.0994-6.4053h-0.2562v0.76861c0 5.6793 2.6475 9.5225 7.9425 11.529l2.3059 0.2562h1.281c4.6118-1.0248 6.9177-3.3307 6.9177-6.9177v-0.2562c-0.59781-3.0745-1.7081-4.6118-3.3307-4.6118l0.76861 2.0497c0 0.98218-0.76861 1.7508-2.3059 2.3059-1.4092 0-2.2632-0.85401-2.5621-2.5621 0.38437-1.8789 1.3238-2.8183 2.8183-2.8183h1.281c2.8183 0 4.6118 2.1351 5.3804 6.4053 0 3.1599-1.7935 5.8074-5.3804 7.9425-0.64045 0.51241-2.1778 0.93941-4.6118 1.281-5.5085 0-9.4371-3.2453-11.786-9.736l-0.2562-2.0497v-1.2811c0-4.4837 1.8789-8.2414 5.6366-11.273zm-1.5373 0.51241-1.7935 1.7935c0-0.51241-0.2562-0.76861-0.76861-0.76861 0-0.38437 0.85401-0.72597 2.5621-1.0248zm1.5373 1.2811c-1.3665 1.4092-2.0497 3.1172-2.0497 5.1242 0.34161 3.4161 1.1956 5.1242 2.5621 5.1242 1.1956-1.4519 1.7935-3.1599 1.7935-5.1242 0-2.2205-0.76861-3.9286-2.3059-5.1242zm-15.116 5.1242c2.3059-2.2205 5.8928-3.8432 10.761-4.868h0.2562c-2.2205 3.1172-3.3307 6.1064-3.3307 8.9674l0.0082 0.51252 0.05788 1.7934c0.30402 2.5631 0.95878 4.441 2.4961 6.4053-1.8362 1.8789-3.9713 2.8183-6.4053 2.8183h-0.76866c-2.007 0-3.2026-0.59781-3.587-1.7935l-0.2562-1.7935v-0.76861c0-2.6902 1.3665-5.5085 4.0994-8.455 0.93941-1.1956 1.6227-1.7935 2.0497-1.7935v-0.2562h-0.51241c-7.1739 2.2632-10.761 7.0458-10.761 14.348v1.0248l0.2562 0.2562v0.2562h-0.51241l-0.51241-4.0994c-0.58752-4.7008 2.7181-9.9288 6.6614-12.554zm14.86-4.0994h0.76861c0.85401 1.9216 1.2811 3.4588 1.2811 4.6118 0 1.7081-0.59781 2.9891-1.7935 3.8432-0.72597-0.98218-1.2384-2.3486-1.5373-4.0994 0-0.93941 0.42701-2.3913 1.2811-4.3556zm-3.5869 0.2562v0.2562l-0.51241 0.51241v-0.2562zm-18.96 2.0497h1.5373c1.4946 0 2.9464 0.3416 4.3556 1.0248-2.8183 4.2702-6.5761 6.4053-11.273 6.4053h-0.51241l-4.6118-0.51241v-0.2562l9.736-3.3307v-0.2562h-0.25621l-9.736 2.5621v-0.2562c3.1599-3.587 6.7469-5.3804 10.761-5.3804zm8.9674 12.554v1.5373c0 1.0248 0.51241 1.5373 1.5373 1.5373h1.2811c0.81137 0 2.007-0.42701 3.587-1.281-1.0676-1.3238-1.7017-3.7186-2.1714-7.3483l0.12173-1.8753c-1.5373 0.76861-2.9037 2.8183-4.0994 6.1491zm3.5869-5.8928c0 2.3059 0.59781 4.7826 1.7935 7.4301-1.0248 0.68321-2.0497 1.0248-3.0745 1.0248h-0.2562c-1.0248 0-1.5373-0.51241-1.5373-1.5373 0-2.5621 1.0248-4.868 3.0745-6.9177z" fill="#454648" stroke-width="3.2795" style="font-feature-settings:normal;font-variant-caps:normal;font-variant-ligatures:normal;font-variant-numeric:normal"/>
  </g>
 </g>
</svg>
