<?xml version="1.0" encoding="UTF-8"?>
<svg width="13.547mm" height="17.473mm" version="1.1" viewBox="0 0 13.547 17.473" xmlns="http://www.w3.org/2000/svg" xmlns:cc="http://creativecommons.org/ns#" xmlns:dc="http://purl.org/dc/elements/1.1/" xmlns:rdf="http://www.w3.org/1999/02/22-rdf-syntax-ns#">
 <g fill-opacity=".14386">
  <g>
   <path d="m-9.818e-4 11.872c0.14113 2.2726 2.814 1.5423 2.1208 4.2959 1.745-0.96409 4.1524 0.13512 3.2638 2.5201-0.53527 1.4368-2.0912 1.1151-3.3164 3.4886-0.29789 0.011419-0.63872 0.044638-0.94738 0.2122-0.9858-2.0558-0.1932-3.6089 0.64118-4.5942-2.0579 1.2262-1.7129 3.1628-0.89501 5.2773 0.71571-0.27163 0.95559-0.28377 1.6251-0.30627 0.15912-1.6235 2.7567-2.1526 3.505-3.8487 0.74757-1.6943-0.11992-3.8452-3.1797-3.6605-0.01356-0.67772-0.24475-1.2042-0.83186-1.6296-0.58021-0.42042-1.7246-0.75548-1.9856-1.7549z"/>
   <path d="m0.06881 15.921c0.31187 0.64691 0.30385 1.1217 0 1.8041-0.34789-0.67898-0.35066-1.155 0-1.8041z"/>
   <path d="m13.546 11.872c-0.14113 2.2726-2.814 1.5423-2.1208 4.2959-1.745-0.96409-4.1524 0.13512-3.2638 2.5201 0.53527 1.4368 2.0912 1.1151 3.3164 3.4886 0.29789 0.01142 0.63872 0.04464 0.94738 0.2122 0.9858-2.0558 0.1932-3.6089-0.64118-4.5942 2.0579 1.2262 1.7129 3.1628 0.89502 5.2773-0.71571-0.27163-0.95559-0.28377-1.6251-0.30627-0.15912-1.6235-2.7567-2.1526-3.505-3.8487-0.74757-1.6943 0.11992-3.8452 3.1797-3.6605 0.01356-0.67772 0.24475-1.2042 0.83186-1.6296 0.58021-0.42042 1.7246-0.75548 1.9856-1.7549z"/>
   <path d="m13.616 15.921c0.31187 0.64691 0.30385 1.1217 0 1.8041-0.34789-0.67898-0.35066-1.155 0-1.8041z"/>
   <path d="m-9.818e-4 -5.6008c0.14113 2.2726 2.814 1.5423 2.1208 4.2959 1.745-0.96409 4.1524 0.13512 3.2638 2.5201-0.53527 1.4368-2.0912 1.1151-3.3164 3.4886-0.29789 0.011419-0.63872 0.044638-0.94738 0.2122-0.9858-2.0558-0.1932-3.6089 0.64118-4.5942-2.0579 1.2262-1.7129 3.1628-0.89501 5.2773 0.71571-0.27163 0.95559-0.28377 1.6251-0.30627 0.15912-1.6235 2.7567-2.1526 3.505-3.8487 0.74757-1.6943-0.11992-3.8452-3.1797-3.6605-0.01356-0.67772-0.24475-1.2042-0.83186-1.6296-0.58021-0.42042-1.7246-0.75548-1.9856-1.7549z"/>
   <path d="m0.06881-1.5519c0.31187 0.64691 0.30385 1.1217 0 1.8041-0.34789-0.67898-0.35066-1.155 0-1.8041z"/>
   <path d="m13.546-5.6008c-0.14113 2.2726-2.814 1.5423-2.1208 4.2959-1.745-0.96409-4.1524 0.13512-3.2638 2.5201 0.53527 1.4368 2.0912 1.1151 3.3164 3.4886 0.29789 0.011419 0.63872 0.044638 0.94738 0.2122 0.9858-2.0558 0.1932-3.6089-0.64118-4.5942 2.0579 1.2262 1.7129 3.1628 0.89502 5.2773-0.71571-0.27163-0.95559-0.28377-1.6251-0.30627-0.15912-1.6235-2.7567-2.1526-3.505-3.8487-0.74757-1.6943 0.11992-3.8452 3.1797-3.6605 0.01356-0.67772 0.24475-1.2042 0.83186-1.6296 0.58021-0.42042 1.7246-0.75548 1.9856-1.7549z"/>
   <path d="m13.616-1.5519c0.31187 0.64691 0.30385 1.1217 0 1.8041-0.34789-0.67898-0.35066-1.155 0-1.8041z"/>
  </g>
  <g transform="matrix(.99702 0 0 .99727 -100.19 -54.132)">
   <path d="m107.41 57.425c-0.14155 2.2788-2.8224 1.5465-2.1271 4.3077-1.7502-0.96673-4.1648 0.13549-3.2736 2.527 0.53687 1.4407 2.0975 1.1182 3.3263 3.4982 0.29878 0.01145 0.64063 0.04476 0.95021 0.21278 0.98875-2.0614 0.19378-3.6188-0.6431-4.6068 2.0641 1.2296 1.718 3.1715 0.89769 5.2917-0.71785-0.27237-0.95845-0.28455-1.63-0.30711-0.1596-1.6279-2.7649-2.1585-3.5155-3.8592-0.7498-1.6989 0.12028-3.8557 3.1892-3.6705 0.0136-0.67958 0.24548-1.2075 0.83435-1.6341 0.58194-0.42157 1.7298-0.75755 1.9915-1.7597z"/>
   <path d="m107.41 57.425c0.14155 2.2788 2.8224 1.5465 2.1271 4.3077 1.7502-0.96673 4.1648 0.13549 3.2736 2.527-0.53687 1.4407-2.0975 1.1182-3.3263 3.4982-0.29878 0.01145-0.64063 0.04476-0.95021 0.21278-0.98875-2.0614-0.19378-3.6188 0.6431-4.6068-2.0641 1.2296-1.718 3.1715-0.89769 5.2917 0.71785-0.27237 0.95845-0.28455 1.63-0.30711 0.1596-1.6279 2.7649-2.1585 3.5155-3.8592 0.7498-1.6989-0.12028-3.8557-3.1892-3.6705-0.0136-0.67958-0.24548-1.2075-0.83435-1.6341-0.58194-0.42157-1.7298-0.75755-1.9915-1.7597z"/>
   <path d="m107.48 61.485c0.3128 0.64868 0.30476 1.1248 0 1.809-0.34893-0.68084-0.35171-1.1582 0-1.809z"/>
  </g>
 </g>
</svg>
